<svg width="90" height="90" viewBox="0 0 90 90" fill="none" xmlns="http://www.w3.org/2000/svg">
<path d="M9.26164 63.7689C9.2586 63.6145 9.31598 63.4651 9.42153 63.3524C9.4781 63.2949 9.54623 63.25 9.62143 63.2207C9.69663 63.1915 9.77718 63.1785 9.85776 63.1827C9.93715 63.1782 10.0166 63.1904 10.091 63.2184C10.1654 63.2465 10.2331 63.2898 10.2898 63.3455C10.3465 63.4013 10.3909 63.4683 10.4202 63.5422C10.4495 63.6161 10.4629 63.6954 10.4598 63.7748C10.4616 63.8508 10.4481 63.9263 10.4199 63.9969C10.3917 64.0674 10.3496 64.1316 10.296 64.1854C10.238 64.2414 10.1693 64.285 10.094 64.3135C10.0186 64.342 9.93824 64.3548 9.85776 64.3512C9.77751 64.3555 9.69724 64.343 9.62211 64.3144C9.54699 64.2859 9.47866 64.2419 9.42153 64.1854C9.36808 64.1304 9.32634 64.0651 9.29886 63.9936C9.27138 63.922 9.25872 63.8455 9.26164 63.7689ZM10.2861 73.891H9.41363V66.0389H10.2861V73.891Z" fill="#1B3F70"/>
<path d="M15.825 73.8911V63.3209H18.9477C20.0807 63.3209 20.9406 63.5551 21.5275 64.0236C22.1144 64.492 22.4072 65.1809 22.4059 66.0902C22.4177 66.6026 22.2609 67.1046 21.9598 67.5193C21.6533 67.9302 21.2251 68.2341 20.736 68.3878C21.3199 68.5075 21.844 68.8267 22.2182 69.2906C22.5924 69.7545 22.7935 70.3342 22.7869 70.9302C22.7869 71.8659 22.4855 72.5955 21.8828 73.1193C21.2801 73.643 20.4412 73.9062 19.3661 73.9088L15.825 73.8911ZM16.7191 68.0582H19.1589C19.905 68.0444 20.4814 67.8608 20.8919 67.5312C21.3025 67.2015 21.5058 66.7021 21.5058 66.0587C21.5058 65.3777 21.2926 64.8743 20.8702 64.5545C20.4478 64.2348 19.8063 64.0709 18.9477 64.0709H16.7191V68.0582ZM16.7191 68.8142V73.137H19.3977C20.1636 73.137 20.7702 72.9397 21.2176 72.5449C21.4429 72.3428 21.6203 72.093 21.7367 71.8136C21.8532 71.5343 21.9058 71.2325 21.8907 70.9302C21.9039 70.6405 21.853 70.3515 21.7418 70.0837C21.6306 69.8159 21.4617 69.5759 21.2472 69.3807C20.8182 69.0017 20.2261 68.8122 19.4707 68.8122L16.7191 68.8142Z" fill="#1B3F70"/>
<path d="M42.3461 73.8911H41.4461V68.828H35.402V73.8911H34.5078V63.3209H35.402V68.072H41.4461V63.3209H42.3461V73.8911Z" fill="#1B3F70"/>
<path d="M55.2948 63.3209V70.5354C55.3049 71.1863 55.1414 71.8282 54.8211 72.3949C54.5138 72.9212 54.0578 73.3449 53.5104 73.6128C52.9052 73.9044 52.2399 74.0498 51.5681 74.0371C50.4548 74.0371 49.5626 73.7332 48.8915 73.1252C48.2204 72.5172 47.875 71.6777 47.8552 70.6065V63.3209H48.7415V70.4762C48.7415 71.3658 48.9955 72.0573 49.5034 72.5508C50.0114 73.0443 50.7016 73.2897 51.574 73.2871C52.4452 73.2871 53.1341 73.0403 53.6407 72.5468C54.1473 72.0534 54.4 71.3658 54.3987 70.4841V63.3209H55.2948Z" fill="#1B3F70"/>
<path d="M60.7606 73.8911V63.3209H63.8833C65.019 63.3209 65.8789 63.5551 66.4632 64.0236C67.0475 64.492 67.3403 65.1809 67.3416 66.0902C67.3533 66.6026 67.1966 67.1046 66.8955 67.5193C66.5889 67.9302 66.1607 68.2341 65.6717 68.3878C66.2549 68.5083 66.778 68.8278 67.1515 69.2916C67.5249 69.7555 67.7254 70.3348 67.7186 70.9302C67.7186 71.8659 67.4172 72.5955 66.8146 73.1193C66.2119 73.643 65.373 73.9062 64.2978 73.9088L60.7606 73.8911ZM61.6548 68.0582H64.0945C64.8407 68.0444 65.417 67.8608 65.8276 67.5312C66.2382 67.2015 66.4415 66.7021 66.4415 66.0587C66.4415 65.3777 66.2283 64.8743 65.8059 64.5545C65.3835 64.2348 64.742 64.0709 63.8833 64.0709H61.6548V68.0582ZM61.6548 68.8142V73.137H64.3353C65.0999 73.137 65.7059 72.9397 66.1533 72.5449C66.3794 72.3422 66.5572 72.0914 66.6737 71.8109C66.7902 71.5305 66.8423 71.2275 66.8264 70.9243C66.8395 70.6346 66.7887 70.3456 66.6775 70.0778C66.5663 69.81 66.3974 69.57 66.1829 69.3748C65.7552 68.9958 65.1631 68.8063 64.4064 68.8063L61.6548 68.8142Z" fill="#1B3F70"/>
<path d="M78.8454 71.2973C78.857 71.0334 78.8072 70.7704 78.7 70.529C78.5928 70.2875 78.4311 70.0742 78.2276 69.9058C77.817 69.5636 77.0643 69.2392 75.9694 68.9326C74.8746 68.626 74.0752 68.2904 73.5712 67.9259C73.2467 67.7069 72.9798 67.413 72.7928 67.069C72.6059 66.7251 72.5045 66.3412 72.4971 65.9498C72.4898 65.5584 72.5767 65.171 72.7506 64.8203C72.9245 64.4695 73.1802 64.1658 73.4961 63.9347C74.162 63.4294 75.0128 63.1767 76.0484 63.1767C76.6996 63.1658 77.3446 63.305 77.9335 63.5834C78.4619 63.8311 78.909 64.224 79.2224 64.7164C79.5287 65.2009 79.6878 65.7638 79.6804 66.337H78.7803C78.7935 66.0093 78.7337 65.6828 78.6054 65.381C78.477 65.0793 78.2833 64.8098 78.0381 64.592C77.5446 64.1525 76.8814 63.9327 76.0484 63.9327C75.2391 63.9327 74.5949 64.113 74.116 64.4736C73.8894 64.6326 73.7055 64.8448 73.5802 65.0916C73.4549 65.3384 73.3921 65.6122 73.3975 65.8889C73.3924 66.1439 73.4483 66.3964 73.5606 66.6254C73.6729 66.8544 73.8382 67.0533 74.0429 67.2055C74.4745 67.545 75.1647 67.8443 76.1135 68.1036C76.8619 68.2869 77.5861 68.5579 78.271 68.9109C78.7152 69.1483 79.0941 69.4913 79.3744 69.9097C79.631 70.3239 79.76 70.8044 79.7455 71.2914C79.7554 71.6816 79.6695 72.0682 79.4954 72.4174C79.3213 72.7667 79.0642 73.068 78.7467 73.2949C78.0808 73.7976 77.2031 74.0496 76.1135 74.0509C75.4101 74.0608 74.7121 73.9264 74.0627 73.6562C73.4902 73.432 72.997 73.0432 72.6454 72.5389C72.3205 72.0507 72.1518 71.4751 72.1618 70.8888H73.056C73.0429 71.2287 73.112 71.5667 73.2573 71.8742C73.4027 72.1817 73.62 72.4497 73.8909 72.6554C74.4476 73.0857 75.1884 73.3009 76.1135 73.3009C76.936 73.3009 77.5972 73.1193 78.0973 72.7561C78.3345 72.5953 78.5274 72.3774 78.6581 72.1225C78.7889 71.8675 78.8533 71.5838 78.8454 71.2973Z" fill="#1B3F70"/>
<path d="M23.0572 31.8708L7.36675 55.1628C7.14922 55.4861 7.0235 55.8624 7.00299 56.2515C6.98247 56.6407 7.06793 57.0281 7.25027 57.3725C7.4326 57.7169 7.70496 58.0054 8.03833 58.2072C8.3717 58.409 8.75357 58.5165 9.14326 58.5184H40.5282C40.9187 58.5183 41.3019 58.412 41.6366 58.211C41.9714 58.0099 42.2452 57.7215 42.4287 57.3768C42.6122 57.0321 42.6986 56.644 42.6784 56.254C42.6583 55.864 42.5326 55.4868 42.3146 55.1628L26.63 31.8708C26.4329 31.5781 26.1669 31.3383 25.8554 31.1725C25.544 31.0067 25.1965 30.92 24.8436 30.92C24.4907 30.92 24.1433 31.0067 23.8318 31.1725C23.5203 31.3383 23.2543 31.5781 23.0572 31.8708Z" fill="#036DB0"/>
<path d="M51.3234 16.0559L25.0488 54.7443C24.8027 55.1063 24.6599 55.5285 24.6357 55.9656C24.6116 56.4027 24.7071 56.8381 24.9119 57.225C25.1167 57.6119 25.4231 57.9357 25.7982 58.1615C26.1732 58.3873 26.6027 58.5065 27.0405 58.5065H79.5915C80.0293 58.5065 80.4588 58.3873 80.8338 58.1615C81.2089 57.9357 81.5153 57.6119 81.7201 57.225C81.9249 56.8381 82.0204 56.4027 81.9963 55.9656C81.9721 55.5285 81.8293 55.1063 81.5832 54.7443L55.3087 16.0559C55.0879 15.7306 54.7909 15.4643 54.4436 15.2803C54.0962 15.0962 53.7091 15 53.316 15C52.9229 15 52.5358 15.0962 52.1884 15.2803C51.8411 15.4643 51.5441 15.7306 51.3234 16.0559Z" fill="#4CC7F4"/>
</svg>
