<svg width="21" height="20" viewBox="0 0 21 20" fill="none" xmlns="http://www.w3.org/2000/svg">
<path d="M2.67152 19.5582H5.53105C5.5708 19.8065 5.77726 20.0007 6.03801 20.0007H12.5393C12.8011 20.0007 13.0066 19.8075 13.0463 19.5582H15.9058C16.3895 19.5582 16.7811 19.1679 16.7811 18.6858H1.79718C1.79718 19.1679 2.18879 19.5582 2.67152 19.5582Z" fill="black"/>
<path d="M20.2252 10.5916C19.4963 10.0032 18.4697 9.99358 17.7941 10.068C17.8135 9.59844 17.8242 9.11828 17.8242 8.61879H6.10352e-05C6.10352e-05 13.4204 0.729 16.8849 5.34206 18.1776H12.4822C14.3094 17.6665 15.521 16.8077 16.3246 15.6657C18.0752 15.6319 20.8911 14.945 20.9968 12.5355C21.0424 11.4804 20.6023 10.895 20.2252 10.5916ZM17.0584 14.288C17.3938 13.4291 17.5925 12.463 17.702 11.4012C18.1751 11.3239 18.9903 11.2747 19.4022 11.6089C19.4779 11.6708 19.7134 11.8621 19.6863 12.4794C19.631 13.7277 18.0762 14.1469 17.0584 14.288Z" fill="black"/>
<path d="M7.26134 7.94443C7.26134 7.94443 10.654 7.69614 9.0992 4.84511C7.8507 2.55636 8.13568 1.21345 9.73314 0C9.73314 0 4.50068 1.32842 7.55214 5.43928C8.67172 7.23047 7.26134 7.94443 7.26134 7.94443Z" fill="black"/>
<path d="M9.54797 7.71643C9.54797 7.71643 12.266 7.14545 10.7868 4.96685C10.2498 4.02198 10.9903 3.6848 10.9903 3.6848C10.9903 3.6848 9.24069 3.73987 9.97933 5.23833C10.5706 6.44308 10.3952 7.1271 9.54797 7.71643Z" fill="black"/>
</svg>
