<svg width="21" height="15" viewBox="0 0 21 15" fill="none" xmlns="http://www.w3.org/2000/svg">
<path d="M11.3739 11.947C14.064 11.947 16.2527 9.86313 16.2527 7.30114C16.2527 4.73915 14.0641 2.65431 11.3739 2.65431C8.68392 2.65431 6.49539 4.73882 6.49539 7.30114C6.49539 9.86313 8.68358 11.947 11.3739 11.947Z" fill="black"/>
<path d="M11.3739 13.1941C14.7917 13.1941 17.5614 10.5556 17.5614 7.30119C17.5614 4.04602 14.7916 1.40799 11.3739 1.40799C7.95643 1.40799 5.18628 4.04602 5.18628 7.30119C5.18628 10.5555 7.95643 13.1941 11.3739 13.1941ZM11.3739 2.31085C14.2628 2.31085 16.6138 4.54995 16.6138 7.30119C16.6138 10.0526 14.2628 12.2912 11.3739 12.2912C8.48494 12.2912 6.13436 10.0526 6.13436 7.30119C6.13436 4.54995 8.48494 2.31085 11.3739 2.31085Z" fill="black"/>
<path d="M21 13.7424L20.639 0.515771C20.639 0.230973 20.3965 0 20.0974 0C20.0174 0 19.9423 0.0174568 19.8743 0.0474773V0.0425842C19.8743 0.0425842 19.8602 0.0511803 19.84 0.064273C19.7882 0.0915163 19.7417 0.125041 19.7015 0.166039C19.3052 0.475832 18.0416 1.73848 17.9358 3.44528C17.7754 6.04873 19.1032 7.10309 19.5555 8.06877L19.1945 13.7421C19.1945 14.0268 19.7981 14.2579 20.0971 14.2579C20.3965 14.2582 21 14.0272 21 13.7424Z" fill="black"/>
<path d="M0.945232 5.68473L1.87984 6.12935C1.98635 6.1802 2.10376 6.2173 2.22644 6.24487L1.8654 13.9819C1.8654 14.2209 2.46917 14.4144 2.768 14.4144C3.06697 14.4144 3.6706 14.2209 3.6706 13.9819L3.30956 6.20527C3.43669 6.16718 3.55917 6.12069 3.66637 6.0582L4.3588 5.65663C4.85843 5.36634 5.23495 4.72791 5.23495 4.17048V0.703836C5.23495 0.419038 4.99236 0.188065 4.69339 0.188065C4.39456 0.188065 4.15183 0.419038 4.15183 0.703836V3.82657H3.85105V0.703836C3.85105 0.419038 3.60846 0.188065 3.30949 0.188065C3.01066 0.188065 2.76793 0.419038 2.76793 0.703836V3.82657H2.46612V0.703836C2.46612 0.419038 2.22352 0.188065 1.92455 0.188065C1.62572 0.188065 1.38299 0.419038 1.38299 0.703836V3.82657H1.08312V0.815256C1.08312 0.530523 0.84053 0.299484 0.541561 0.299484C0.24273 0.299484 0 0.530523 0 0.815256V4.22808C0 4.80171 0.406518 5.42824 0.945232 5.68473Z" fill="black"/>
</svg>
