<svg width="24" height="24" viewBox="0 0 24 24" fill="none" xmlns="http://www.w3.org/2000/svg">
<path fill-rule="evenodd" clip-rule="evenodd" d="M12 22.125C17.5919 22.125 22.125 17.5919 22.125 12C22.125 6.40812 17.5919 1.875 12 1.875C6.40812 1.875 1.875 6.40812 1.875 12C1.875 17.5919 6.40812 22.125 12 22.125ZM12 24C18.6274 24 24 18.6274 24 12C24 5.37258 18.6274 0 12 0C5.37258 0 0 5.37258 0 12C0 18.6274 5.37258 24 12 24ZM10.56 5.9988C10.5272 5.18091 11.1815 4.5 12 4.5C12.8185 4.5 13.4728 5.18091 13.44 5.9988L13.17 12.7509C13.1448 13.3789 12.6285 13.875 12 13.875C11.3715 13.875 10.8552 13.3789 10.83 12.7509L10.56 5.9988ZM11.9626 15.75C11.0307 15.75 10.2751 16.5055 10.2751 17.4375C10.2751 18.3695 11.0307 19.125 11.9626 19.125C12.8946 19.125 13.6501 18.3695 13.6501 17.4375C13.6501 16.5055 12.8946 15.75 11.9626 15.75Z" fill="white"/>
</svg>
