<svg width="17" height="17" viewBox="0 0 17 17" fill="none" xmlns="http://www.w3.org/2000/svg">
<g clip-path="url(#clip0)">
<path d="M7.81629 1.43541C8.11897 0.521109 9.41228 0.52111 9.71496 1.43541L10.8948 4.99949C11.0279 5.40136 11.3995 5.67593 11.8228 5.68498L15.5104 5.76389C16.446 5.78391 16.844 6.96321 16.1118 7.54603L13.0931 9.94907C12.7764 10.2012 12.643 10.6193 12.755 11.0083L13.8342 14.7537C14.0981 15.6695 13.0528 16.4002 12.2833 15.838L9.35558 13.6988C9.00418 13.442 8.52707 13.4421 8.17567 13.6988L5.24793 15.838C4.4784 16.4002 3.4332 15.6695 3.69706 14.7537L4.77622 11.0083C4.88829 10.6193 4.75482 10.2012 4.43812 9.94907L1.41944 7.54604C0.687298 6.96321 1.08527 5.78391 2.02086 5.76389L5.70847 5.68498C6.1317 5.67593 6.50338 5.40136 6.63642 4.99949L7.81629 1.43541Z" fill="#B5B7C4"/>
</g>
<defs>
<clipPath id="clip0">
<path d="M0.765625 0.567749H16.7656V16.5677H0.765625V0.567749Z" fill="white"/>
</clipPath>
</defs>
</svg>
